<?xml version="1.0" encoding="utf-8"?>
<svg version="1.1" id="图层_1" xmlns="http://www.w3.org/2000/svg" xmlns:xlink="http://www.w3.org/1999/xlink" x="0px" y="0px"
     viewBox="0 0 1024 1024" style="enable-background:new 0 0 1024 1024;" xml:space="preserve">
    <path style="fill:#FFBFC7;" d="M958.5,408.1c0-183.5-150.1-333.6-333.6-333.6H404.1c-183.5,0-333.6,150.1-333.6,333.6v220.9
        c0,183.5,150.1,333.6,333.6,333.6h220.9c8,0,16-0.3,23.8-0.9c5.3,0.6,10.6,0.9,16.1,0.9h143.4c82.7,0,150.3-67.6,150.3-150.3V668.8
        c0-5.4-0.3-10.8-0.9-16.1c0.6-7.9,0.9-15.8,0.9-23.8V408.1z M807,591.3c0,5.3-0.2,10.5-0.6,15.7c0.4,3.5,0.6,7,0.6,10.6V712
        c0,54.5-44.6,99-99,99h-94.4c-3.6,0-7.1-0.2-10.6-0.6c-5.2,0.4-10.4,0.6-15.7,0.6H441.7C320.9,811,222,712.1,222,591.3V445.7
        C222,324.9,320.9,226,441.7,226h145.5C708.1,226,807,324.9,807,445.7V591.3z"/>
    <circle style="fill:#C0E9FF;" cx="511.5" cy="511.5" r="43"/>
    <circle style="fill:#C0E9FF;" cx="366.5" cy="511.5" r="43"/>
    <circle style="fill:#C0E9FF;" cx="661.5" cy="511.5" r="43"/>
</svg>
