<?xml version="1.0" encoding="utf-8"?>
<svg version="1.1" xmlns="http://www.w3.org/2000/svg" xmlns:xlink="http://www.w3.org/1999/xlink" x="0px" y="0px"
	 viewBox="0 0 1024 1024" style="enable-background:new 0 0 1024 1024;" xml:space="preserve">
<style type="text/css">
	.st0{fill:#FFFFFF;}
	.st1{fill:#FFBFC7;}
	.st2{fill:#C0E9FF;}
</style>
<path class="st0" d="M479,927.5C263.4,910.1,96,728.8,96,511.8C96,281.9,282.9,95,512.8,95c104.4,0,204.8,38.9,282.1,109.6
	c76.8,70.1,124.4,165.9,134.1,268.8c0,0.5,0,1.5,0,2v428c0,14.1-11.5,25.6-25.6,25.6H487.7C484.6,928.5,482,928,479,927.5z"/>
<path class="st1" d="M479,927.5C263.4,910.1,96,728.8,96,511.8C96,281.9,282.9,95,512.8,95c104.4,0,204.8,38.9,282.1,109.6
	c76.8,70.1,124.4,165.9,134.1,268.8c0,0.5,0,1.5,0,2v428c0,14.1-11.5,25.6-25.6,25.6H487.7C484.6,928.5,482,928,479,927.5z
	 M877,873.6V472.2c-8.7-90.1-50.2-173.1-117.2-235c-73.6-67-169.9-101.6-270.3-95.6C296,153.3,143.9,317,145.9,510.8
	c2,191.3,151.8,349.5,343,361.2c1.5,0,3.6,0.5,5.1,1h383V873.6z"/>
<circle class="st2" cx="324.9" cy="509.2" r="56.8"/>
<circle class="st2" cx="513.8" cy="509.2" r="56.8"/>
<circle class="st2" cx="702.7" cy="509.2" r="56.8"/>
</svg>
